<svg xmlns="http://www.w3.org/2000/svg" version="1.1" width="600px" height="600px" viewBox="0 0 200 200" style="overflow:hidden!important;"><g id="svga-group-wrapper"><g id="svga-group-backs-single"><path id="SvgjsPath44844" d="M0 0h200v200H0V0z" fill="#ecf0f1" stroke-width="none" opacity="1"></path></g><g id="svga-group-humanwrap-move" transform="matrix(1,0,0,1,0,0)"><g id="svga-group-humanwrap"><g id="svga-group-hair-back-move" transform="matrix(1,0,0,1,0,0)"><g id="svga-group-hair-back"></g></g><g id="svga-group-humanbody-back"><path id="SvgjsPath44785" d="M77.6 118.3c0 19.3 3.4 44.1-10 51.9-13.4 7.9-31.9 11.3-37.8 22s-4.4 25.3-4.4 25.3h149.3s.7-18.9-5.1-26.4c-8.1-10.4-27.8-15.5-37.7-20.9s-13.4-25.1-13.4-52.4l-40.9.5z" fill="#ffffff" stroke-width="none" opacity="1"></path></g><g id="svga-group-chinshadow-single"></g><g id="svga-group-humanbody-front"><path id="SvgjsPath44786" d="M175.8 218.7H24.4l-.1-1c-.1-.6-1.5-15.1 4.5-26 4.1-7.4 13.5-11.3 23.5-15.5 5-2.1 10.2-4.3 14.8-6.9 10.6-6.2 10.1-23.9 9.6-41-.1-3.5-.2-6.8-.2-10v-1.1l43.2-.4v1.1c0 29.9 4.2 46.7 12.8 51.4 2.9 1.6 6.7 3.2 10.8 4.9 10 4.1 21.3 8.8 27.2 16.3 6.1 7.7 5.4 26.4 5.4 27.1l-.1 1.1zm-149.3-2.2h147.1c0-4.1-.2-18.5-4.9-24.6-5.5-7-16.6-11.6-26.3-15.6-4.1-1.7-8-3.3-11-5-5.1-2.8-8.7-8.9-10.9-18.7-2-8.4-2.9-19.4-3-33.5l-38.6.4c0 2.8.1 5.7.2 8.8.5 17.8 1 36.1-10.7 43-4.7 2.7-9.9 4.9-15 7.1-9.6 4-18.7 7.8-22.4 14.5-5 8.6-4.7 20.1-4.5 23.6z" fill="#000000" stroke-width="none" opacity="1"></path><path id="SvgjsPath44787" d="M93.9 153.8c-.5 1.8-.4 3.4.5 5.2.8 1.6 2.1 2.7 3.9 2.9.4 0 .7-.5.5-.8-1.6-2.2-3.5-4.2-3.7-7.1 0-.7-1-.9-1.2-.2z" fill="#000000" stroke-width="none" opacity="1"></path><path id="SvgjsPath44788" d="M112.5 187.5c8.8.5 18.1-.7 26.6-2.9.7-.2.6-1.4-.2-1.3-8.8 1.1-17.7 2-26.5 3.3-.5.1-.3.9.1.9z" fill="#000000" stroke-width="none" opacity="1"></path><path id="SvgjsPath44789" d="M63.1 182.5c3.8.9 7.6 1.9 11.5 2.8 3.6.8 7.4 2 11.1 2.1.7 0 .8-.9.2-1.2-3.5-1.4-7.5-1.7-11.2-2.5-3.8-.7-7.5-1.3-11.3-2-.5 0-.7.7-.3.8z" fill="#000000" stroke-width="none" opacity="1"></path></g><g id="svga-group-clothes-single"><path id="SvgjsPath44677" d="M77.6 140.5s-8.6 2.8-13.1 5.9-5.6 10-5.6 10-2.3-3.3-4.5 1.9-1.8 5.6-4 7.9c-2.3 2.3-1 6.8-.2 7.9 0 0-4 2.8-8.4 4s-10.3 4.2-12.1 6.6-9.6 12.8-5.6 34h153.6s0-21-3-27.5-7.7-7.5-7.7-7.5-9.8-7-11.7-8.2-11-4.2-11-4.2-.5-4.2-1.2-7.2-4.6-8.1-6.6-8.4c-2.1-.4-3-2.8-5.6-7-2.6-4.2-5.8-6.5-7.3-7-1.6-.5-3.3-.2-3.3-.2s1.2 8.9 1.2 13.6-.9 7.7-4.6 12.2c-3.7 4.6-6.1 5.8-11.4 9.3s-6.3 5.4-6.3 5.4-3.2-5.1-8.8-8.6S83 166 79 162.5s-1.1-6.1-1.4-11.2c-.3-5.1 0-10.8 0-10.8z" fill="#ffffff" stroke-width="none" opacity="1"></path><path id="SvgjsPath44678" d="M175.6 190.8c-2.8-6.1-7.1-7.7-8.2-8-1.3-.9-9.8-7-11.6-8.1-1.8-1.1-8.5-3.4-10.6-4.1-.2-1.3-.6-4.3-1.2-6.6-.7-3-4.7-8.7-7.5-9.1-1.1-.2-1.8-1.3-3.3-3.9-.5-.8-1-1.6-1.6-2.6-2.6-4.2-5.9-6.8-7.9-7.4-1.8-.6-3.8-.2-3.8-.2-.5.1-.9.6-.8 1.1 0 .1 1.2 8.9 1.2 13.5 0 4.2-.7 7.1-4.3 11.6-3 3.8-5.1 5.1-9 7.6-.7.4-1.4.9-2.2 1.4-3.1 2.1-4.8 3.6-5.7 4.6-1.3-1.8-4.1-5.1-8.3-7.7-3.3-2.1-5.2-4.4-7.1-6.6-1.2-1.4-2.5-2.9-4.1-4.4-2.2-1.9-1.9-3.4-1.5-5.7.3-1.4.6-2.9.4-4.8-.3-4.9 0-10.7 0-10.7 0-.3-.1-.6-.4-.9-.3-.2-.6-.3-.9-.2-.4.1-8.8 2.9-13.4 6.1-3.5 2.4-5 6.7-5.7 9-.4-.2-.8-.3-1.3-.2-1.4.1-2.5 1.3-3.5 3.6-.7 1.7-1.2 2.9-1.5 3.8-.7 1.9-.9 2.4-2.3 3.8-2.2 2.2-1.7 6.2-.8 8.3-1.3.8-4.3 2.5-7.3 3.4-4.6 1.3-10.7 4.3-12.6 7l-.1.2c-6.4 8.9-8.3 20.6-5.6 34.6.1.5.5.8 1 .8h153.6c.6 0 1-.4 1-1 0-1.2-.1-21.6-3.1-28.2zm-33-23.6c.3 1.9.6 3.7.6 4.1 0 .2-.1.8-.6 1.6.3-1.8.2-3.8 0-5.7zm-20.7-19.4c.5.2 1.2.5 1.9.9-.2.1-.3.1-.5.1l-1.2.3c-.2-.5-.2-.9-.2-1.3zm-.1 12.5h1.5c-.6.4-1.3 1-2 1.6.2-.5.4-1 .5-1.6zm4.2-3.1c-1.2.1-2.6.4-3.8.6.1-.5.1-1 .1-1.5 1.3-.1 2.7-.3 3.9-.5 0 .5-.1 1-.2 1.4zm.1-5c.1.5.1.9.1 1.3-1.3 0-2.7.4-3.9.8 0-.5 0-1-.1-1.5 1.3-.2 2.7-.3 3.9-.6zm-3.8 3.6v-1.1c.7-.2 1.4-.3 2.2-.4.6-.1 1.2-.1 1.8-.2v1.1c-1.3 0-2.7.3-4 .6zm-.1-3.5c0-.4-.1-.8-.1-1.1.6-.1 1.1-.1 1.7-.2.6-.1 1.2-.2 1.7-.3.2.3.3.6.4 1-1.2 0-2.5.3-3.7.6zm1.9-2c-.6.1-1.3.2-1.9.4 0-.3-.1-.7-.1-1 .4-.1.9-.2 1.3-.3.3-.1.7-.1 1-.3l.9.9c-.5.1-.9.2-1.2.3zm-1.9 8c1.1-.1 2.4-.2 3.5-.4-.3.7-.9 1.3-1.6 1.8-.7 0-1.5.1-2.2.1l.3-1.5zM76 159.6c-1.2-1.1-2.3-2.2-2.7-3.1-.1-.1-.1-.2-.1-.4.9.7 1.8 1.5 2.8 2.1-.1.5-.1 1 0 1.4zm-.5-10.9c.3.4.7.7 1.1 1 0 .4 0 .9.1 1.3-.3-.2-.5-.4-.8-.6-.4-.3-.7-.6-1.1-.9.1-.2.4-.5.7-.8zm.3-.3c.2-.2.4-.3.6-.4v1c-.1-.2-.3-.4-.6-.6zm-1.4 1.5c.4.4.8.7 1.2 1 .3.3.6.6 1 .8v1c-.8-.7-1.8-1.4-2.7-2 .2-.2.3-.5.5-.8zm-.7 1.4c.9.8 1.8 1.7 2.8 2.3 0 .3-.1.6-.1.9-.4-.3-.9-.6-1.4-.9-.6-.4-1.2-.8-1.7-1.2.1-.4.3-.8.4-1.1zm-.5 1.5c.5.4 1.1.8 1.6 1.2.5.4 1 .8 1.6 1.1 0 .2-.1.4-.1.5 0 .1-.1.3-.1.4-.5-.3-1-.6-1.4-.9l-1.8-1.2c0-.3.1-.7.2-1.1zm2.7 4.8c-.9-.8-1.9-1.5-2.9-2.1v-1c.4.4.9.7 1.4 1.1.5.4 1.1.8 1.7 1.2-.1.2-.1.5-.2.8zm-22.1 4.8c.3-.9.8-2 1.5-3.7.9-2.1 1.6-2.3 1.8-2.4.3 0 .6.2.8.4.1 2.2 1.5 13.1 16.7 21.5.2.1.3.1.5.1.3 0 .7-.2.8-.5.1.2.2.5.3.7.1.1.3.1.3-.1-.2-2-.6-3.7-.3-5.7 0-.2-.3-.4-.4-.1-.2 1.2-.4 2.5-.2 3.8l-.1-.1c-.1-.1-.2-.1-.3-.2-.3-1.7-.5-3.3-.4-5 0-.3-.4-.3-.4 0-.2 1.5-.2 3.1.1 4.6-.4-.3-.9-.5-1.3-.8-.2-.5-.3-1.1-.4-1.6-.2-1.1-.1-2.1.1-3.1 0-.2-.3-.3-.3-.1-.3 1.3-.4 3 0 4.4-.4-.2-.7-.5-1-.7-.1-2.3-.2-4.5.1-6.8 0-.3-.4-.2-.4 0-.3 2.1-.4 4.2-.2 6.4-.6-.4-1.2-.9-1.7-1.4-.1-2.1-.1-4.2.3-6.4 0-.2-.2-.3-.3-.1-.5 2-.7 4-.6 6-.4-.4-.8-.8-1.2-1.1 0-1-.1-2.1 0-3.1.1-1.4.4-2.8.8-4.1.1-.2-.2-.3-.3-.1-.7 2-1.3 4.5-1 6.7-.4-.4-.7-.8-1.1-1.1-.2-1 .2-3.2.2-3.5.2-1.4.5-2.7 1-4 .1-.2-.2-.2-.3-.1-.8 2.3-1.3 4.7-1.4 7.1-.3-.3-.5-.6-.8-1 .1-.1.1-.2.1-.2.1-.1-.1-.3-.2-.2.2-2.9.8-5.8 1.8-8.5.1-.2-.2-.3-.3-.1-1 2.7-1.7 5.5-1.9 8.3-.3-.5-.6-.9-.9-1.4.7-2.8 1.1-5.7 2.1-8.5.1-.3-.3-.4-.4-.1-.9 2.5-1.8 5.3-2 8-.4-.6-.7-1.2-1-1.8.7-3 1.1-5.8 2.5-8.6.1-.2-.2-.4-.3-.2-1.3 2.4-2.4 5.3-2.6 8.1-.3-.8-.6-1.6-.8-2.2 1.2-2.8 1.9-5.8 3.1-8.6.1-.2-.2-.4-.3-.2-1.2 2.5-2.6 5.3-3.1 8-.3-1.4-.4-2.3-.4-2.6 1.2-2.5 2.1-5.1 3.3-7.6.5-.6 1.1-1.2 1.8-1.7 3.3-2.3 8.9-4.4 11.5-5.3 0 1-.1 2.4-.1 3.9-1.9.7-3.5 2.3-4.5 4.5-1.1 2.5-1.3 5.3-.5 7.1 1.1 2.4 5.2 5.4 8.7 7.8.3.2.5.3.6.4l1.5 1.8c2 2.3 4 4.8 7.6 7 5.3 3.3 8.4 8.2 8.4 8.2.2.3.5.5.9.5.3 0 .7-.2.8-.5 0 0 1.1-1.8 6-5.1.8-.5 1.5-1 2.2-1.4 3.2-2.1 5.4-3.5 7.8-6.2.2 0 .4-.1.5-.3.1-.1 5.5-6.1 8.3-7.9 3.5-2.4 3.9-5.5 3.3-9.8-.6-4.3-5-5.9-6.5-6.3-.2-1.3-.3-2.4-.4-3.2.5 0 1.2 0 1.9.2 1.4.5 4.3 2.6 6.8 6.6.6.9 1.1 1.8 1.5 2.6 0 0 0 .1.1.1l-.7-.7c-.1-.1-.3.1-.2.2.7.8 1.3 1.7 2 2.5v.1s.3 1.1.3 2.9c-.5-.8-1.1-1.6-1.4-2.5-.1-.2-.4-.1-.4.1.4 1.2.9 2.4 1.8 3.3 0 .3 0 .7-.1 1.1-.5-.7-1.1-1.3-1.5-1.9-.1-.2-.5 0-.3.2.5.7.9 1.4 1.4 2.1.1.2.2.3.3.5-.1.6-.2 1.2-.3 1.9-.5-.6-1-1.2-1.4-1.8-.1-.2-.4.1-.3.2.5.7 1 1.6 1.6 2.3-.1.5-.3 1.1-.6 1.7-.2-.4-.4-.9-.5-1.3-.1-.2-.5-.1-.4.1.2.6.4 1.4.6 2.1-.2.5-.5 1.1-.9 1.6-.1-.3-.1-.6-.1-.9 0-.3-.4-.3-.4 0 0 .5.1 1.1.1 1.6-.4.5-.8 1.1-1.2 1.6-.1-.6-.2-1.3-.3-1.9 0-.2-.4-.2-.4.1.1.8.1 1.6.2 2.3-.4.4-.8.9-1.2 1.3 0-.8-.1-1.5-.2-2.3 0-.3-.4-.3-.4 0 0 .9-.1 1.9 0 2.9-.3.3-.6.6-.9.8 0-.2 0-.5-.1-.7 0-.8-.1-1.5-.1-2.2 0-.3-.4-.3-.4 0 0 .8 0 1.5.1 2.2v1.2c-.4.4-.9.7-1.3 1.1 0-.2-.1-.4-.1-.7 0-.6 0-1.1.1-1.7 0-.3-.3-.4-.4-.1-.2.9-.4 2-.1 2.9-.3.3-.7.5-1 .8 0-.4-.1-.8-.1-1.2 0-.3-.5-.3-.5 0v1.6c-.4.3-.7.5-1.1.8 0-.4-.1-.9-.1-1.3 0-.3-.5-.3-.5 0 0 .6 0 1.1.1 1.6-.4.3-.8.5-1.1.7v-1.8c0-.3-.4-.3-.4 0 0 .6-.1 1.1-.1 1.7v.5c-.4.2-.7.4-1.1.6v-1.4c0-.3-.4-.2-.4 0-.1.5-.1 1.1-.1 1.6-.2.1-.5.2-.7.3-.1 0-.1 0-.1.1 0-.4.1-.7.1-1.1 0-.2-.4-.2-.4 0-.1.4-.1.8-.2 1.3-.3.1-.7.3-1 .4v-1.3c0-.2-.4-.2-.4 0 0 .5-.1 1-.2 1.5-.5.2-1 .4-1.4.5v-1c0-.3-.4-.3-.4 0 0 .4-.1.8-.1 1.2-.3.1-.6.2-.8.3 0-.4.1-.7.1-1.1 0-.2-.4-.3-.4-.1-.1.4-.1.9-.2 1.3-.2.1-.4.1-.4.1-.5.2-.8.7-.7 1.2.1.4.5.7 1 .7h.3c.1 0 1.5-.5 4.4-1.6v.1c0 .2.3.1.3 0s0-.1.1-.2c.4-.1.7-.3 1.1-.4 3.7-1.5 13.6-8.3 16.3-15 1.5-3.6 1.7-6.9 1.6-9 .4.2.8.4 1.2.4 1.4.2 5 4.6 5.8 7.4-.1 0-.2.1-.2.2.3 3.2.1 6.4.2 9.5-.2.2-.4.5-.6.7v-8.7c0-.2-.4-.2-.4 0-.1 3.1-.2 6.2-.2 9.3l-.5.5c0-2.4-.3-4.8-.4-7.2 0-.2-.4-.3-.4 0 .1 2.6-.1 5.2.2 7.8-.2.1-.4.3-.5.4.1-2 0-4.1-.1-6.1 0-.2-.4-.2-.4 0-.1 2.2-.4 4.5-.3 6.7-.2.2-.5.3-.7.5.2-2 .1-4 0-6 0-.2-.4-.2-.4 0 0 2.1-.2 4.3-.3 6.4-.4.2-.9.5-1.4.7.2-1.9 0-3.9 0-5.8 0-.3-.4-.3-.4 0-.1 2-.3 4.1-.2 6.1-.4.2-.8.4-1.3.6.2-1.3.2-2.7.3-4 0-.3-.4-.3-.4 0-.2 1.4-.5 2.9-.6 4.3-.4.2-.9.4-1.3.5.2-1.4.2-2.9.6-4.3.1-.3-.4-.4-.4-.1-.3 1.4-.8 3.1-.9 4.7-.5.2-.9.3-1.4.5.1-1.2 0-2.6.1-3.8 0-.3-.4-.3-.4 0-.1 1.2-.4 2.7-.3 4-.6.2-1.3.4-1.9.7 0-.4 0-.9.1-1.3.1-.9.3-1.7.6-2.5.1-.2-.3-.3-.4-.1-.5 1.2-1 2.7-1 4.1l-.9.3v-.1c.1-.7.1-1.4 0-2.1 0-.3-.5-.3-.5 0 0 .7 0 1.3-.1 2 0 .1-.1.3-.1.5-.4.1-.8.3-1.2.4.1-.6.1-1.2.1-1.8 0-.3-.4-.3-.5 0-.1.6-.2 1.3-.3 2-.5.1-1 .3-1.5.5v-1c0-.3-.5-.3-.4 0v1.2c-.5.2-1 .3-1.5.5.1-.5.3-1.1.4-1.6.1-.3-.3-.4-.4-.1-.2.6-.4 1.3-.6 1.9-.4.1-.8.2-1.2.4.1-.6.2-1.1.3-1.6.1-.3-.4-.4-.4-.1-.2.6-.4 1.3-.5 1.9-.2.1-.4.1-.6.2.1-.4.2-.9.4-1.3.1-.2-.3-.4-.4-.1-.2.5-.4 1-.6 1.6-.2.1-.3.1-.5.1 0-.2.1-.4.1-.6.1-.2-.3-.3-.3-.1-.1.3-.2.5-.3.8-.5.1-.9.3-1.3.4 0-.1-.2-.2-.3 0 0 .1-.1.1-.1.1-.8.2-1.6.4-2.2.6-1.6.4-2.7.8-3.1.9-.3.1-1.2.2-2.4.2-.2-1.3-.6-2.7-1.5-4.8-.2-.5-.8-.7-1.3-.5s-.7.8-.5 1.3c.8 1.7 1.1 2.9 1.3 3.9H101c-.3-.4-.6-.7-1-1-.2-.2-.5.1-.3.3l.7.7h-1.2c-.2-.2-.4-.5-.6-.7-.4-.6-.7-1.2-.9-1.9-.1-.3-.5-.2-.4.1.2.8.6 1.7 1.1 2.5-.4 0-.9 0-1.3-.1-.1-1.8-.1-3.5-.1-4.4 0-.6-.4-1-1-1s-1 .4-1 1c0 .4 0 2.2.1 4.3h-.2c-.3-.4-.7-.8-.9-1.3-.4-.7-.6-1.5-.7-2.3 0-.2-.4-.3-.4 0 .1 1.1.4 2.6 1.2 3.5-.5 0-.9-.1-1.4-.1-.2-.4-.5-.9-.7-1.3-.3-.7-.5-1.5-.5-2.3 0-.2-.4-.3-.4 0 0 1.1.3 2.6 1 3.6-.3 0-.5 0-.8-.1-.2-.6-.7-1.1-.9-1.7-.3-.7-.4-1.4-.4-2.1 0-.3-.4-.3-.4 0-.1 1.1.2 2.9 1.1 3.8-.4 0-.8-.1-1.3-.1-.3-.6-.8-1.2-1.1-1.8-.3-.8-.5-1.6-.5-2.4 0-.3-.4-.3-.4 0 0 1.3.3 3.1 1.3 4.1-.6-.1-1.2-.1-1.8-.2-.3-.4-.5-.9-.7-1.4-.3-.8-.4-1.6-.5-2.4 0-.3-.5-.3-.4 0 0 1.2.3 2.6.9 3.7-.4-.1-.9-.1-1.3-.2-.2-.4-.5-.9-.7-1.4-.3-.8-.5-1.5-.5-2.3 0-.3-.4-.3-.4 0 .1 1.2.3 2.5 1 3.6-.5-.1-.9-.1-1.3-.2-.4-.6-.8-1.1-1-1.7-.4-.8-.6-1.7-.8-2.6 0-.2-.4-.1-.3.1.1 1.3.5 3 1.3 4.1-.7-.1-1.3-.3-1.8-.4-1-1.4-1.8-2.7-2.2-4.5-.1-.2-.3-.1-.3.1.2 1.4.8 2.9 1.7 4.1-.2-.1-.5-.2-.6-.3-.3-.2-.8-.4-1.3-.6-.7-1.5-1.4-3-1.8-4.7-.1-.3-.5-.2-.4.1.2 1.4.6 2.9 1.3 4.1-.3-.1-.7-.3-1-.4-.8-1.6-1.6-3-1.9-4.9 0-.2-.4-.2-.4.1.2 1.5.6 3.2 1.4 4.5-.3-.1-.6-.2-.9-.4-.4-.8-.8-1.5-1.1-2.2-.4-1.1-.7-2.2-.8-3.3 0-.3-.5-.2-.5.1.2 1.6.6 3.6 1.5 5.1l-1.5-.6c-.3-.7-.7-1.3-1-2-.4-.9-.7-1.9-.9-2.9-.1-.3-.5-.2-.4.1.3 1.4.7 3.2 1.6 4.5-.2-.1-.4-.1-.5-.2-.5-.2-1-.4-1.6-.6-.9-1.5-1.5-3-1.8-4.8 0-.2-.4-.2-.4.1 0 1.5.5 3.1 1.3 4.4-.7-.3-1.4-.6-2.1-.8-.8-1.7-1.5-3.4-1.7-5.3 0-.3-.4-.3-.4 0 .1 1.7.5 3.5 1.3 5-.4-.2-.8-.3-1.2-.5-.5-.8-1-1.5-1.4-2.4-.5-1.2-.8-2.5-.9-3.8 0-.3-.4-.3-.4 0 .1 1.9.6 4.1 1.7 5.8-.6-.3-1.3-.5-1.9-.8-1.2-2.1-2.1-4-2.2-6.6 0-.3-.4-.3-.4 0 0 2.1.5 4.4 1.6 6.1-.5-.2-1.1-.5-1.6-.7-1.3-2.3-2.1-4.5-2-7.2 0-.3-.4-.3-.4 0-.2 2.3.3 4.8 1.6 6.8-.3-.2-.7-.3-1-.5-1.3-2.7-2.2-5.2-2.2-8.2 0-.3-.4-.3-.4 0-.1 2.7.5 5.6 1.9 7.9-.7-.4-1.3-.7-1.9-1-1.6-2.4-2.2-4.8-2-7.9v-.1c.8-1.9 1.1-2.7 1.9-4.7zm-3.3 5.3c-.3 2.1.2 4.4 1.3 6.3-.3-.2-.6-.4-.8-.6-.6-.7-1.5-3.7-.5-5.7zM33.2 183c.3.9.8 2.5 1.4 4.6-.7-.3-1.5-.5-2.1-.9-.7-.4-1.3-1-1.8-1.6.5-.7 1.4-1.4 2.5-2.1zm-2.8 2.5c1.1 1.3 2.7 2.5 4.4 2.6.2.8.5 1.7.7 2.7l-.1-.1c-2.4-.9-4.4-1.8-6.2-3.4l1.2-1.8zm-6.2 27.4c3.5 2.2 7.7 4.1 11.8 4.8H24.9c-.3-1.6-.5-3.2-.7-4.8zm12.9 4.8c0-.1 0-.2-.1-.3-4.5-1.5-8.6-2.9-12.8-5.1-.1-.9-.1-1.9-.2-2.8 4.6 2.7 10 5.1 15.2 6.1.2 0 .3-.2.1-.3-5.1-2.2-10.2-4.2-15.3-6.5v-2.9c3.5 2.5 7.6 4.5 11.9 5.4.3.1.4-.4.1-.5-4.2-1.6-8.2-3.2-12-5.5 0-1.2.1-2.3.3-3.4 2.9 1.7 5.9 3.1 9.1 4 .3.1.4-.4.1-.5-3.1-1.3-6.2-2.6-9.2-4.1.1-.9.3-1.8.4-2.6 3 2.4 6.6 4.4 10.4 5 .2 0 .3-.2.1-.3-3.7-1.5-7.1-3.1-10.4-5.2l.6-2.4c2.8 1.9 5.8 3.8 9 4.7.2.1.3-.2.1-.3-3-1.7-6-3.1-8.9-4.9.3-.9.5-1.7.9-2.5 2.4 1.8 5.3 3.1 8.3 3.6.3 0 .4-.3.1-.4-2.9-1-5.6-2.2-8.2-3.8.2-.6.5-1.2.8-1.8 2.2 2 4.9 3.6 7.8 3.9.2 0 .2-.2 0-.3-2.8-1.1-5.3-2.2-7.6-4.1.4-.7.7-1.4 1.1-2.1 1.7 1.8 4.1 3.1 6.5 3.3.1 0 .1 0 .2-.1 1.4 5.9 3.1 14.8 4.1 26.7h-2.5zm4.5 0C39.9 196.6 36 184.9 35 182c2.2-1.2 4.9-2.3 7-2.9 3.5-1 6.7-2.9 8.1-3.7 3.3 2.5 11.8 5.9 18.6 8.6 3.8 1.5 7.2 2.8 8.6 3.6 2.4 1.3 10.3 2.2 17.6 2.6.2 1.5.4 2.9.7 3.8.7 1.9.5 3.3-.2 7.5l-.3 1.8c-.3 1.9-.7 3.4-1.1 4.8-.7 2.6-1.3 4.6-.2 6.8.2.4.5.6.9.6.1 0 .3 0 .4-.1.5-.2.7-.8.5-1.3-.8-1.6-.3-3 .3-5.4.4-1.3.8-3 1.2-5l.3-1.8c.7-4.3 1-6.1.1-8.5-.2-.6-.4-1.8-.6-3 2.3.1 4.5.2 6.4.2 0 .5-.1 1.1-.1 1.7-.1.7-.1 1.5-.2 2.4-.2 4.4.8 10 .9 10.9l-.2 9c0 .6.4 1 1 1 .5 0 1-.4 1-1l.2-9.1v-.2c0-.1-1.1-6-.9-10.5 0-.9.1-1.7.2-2.4s.1-1.3.1-1.9c1.5 0 2.5-.1 2.9-.3.4-.1 1.5-.4 3-.9 2.4-.7 5.7-1.6 9.2-2.7.1.1.3.1.4 0l.1-.1c6.8-2.1 14.4-4.6 17.7-6.8 4.4-2.9 5.9-5.5 6.4-7 3 1 8.4 2.9 9.8 3.8 1.6 1 9.1 6.4 11.1 7.8-.6 3.2-3.3 18.3-2.9 33.6l-121.4-.2zm123.3-1.3c.9.5 1.8.9 2.8 1.3H165c0-.4 0-.9-.1-1.3zm4.4 1.3c-1.4-.7-2.9-1.4-4.4-1.9v-3.1c2.8 2 6 3.5 9.3 4 .3 0 .4-.4.1-.4-3.4-1.1-6.5-2.3-9.4-4.2 0-1.1.1-2.1.1-3.2 2.6 1.2 5.3 2.4 8 3.2.2.1.4-.3.2-.4-2.6-1.3-5.4-2.4-8.1-3.4.1-1.1.1-2.1.2-3.1 2.3 1.5 4.8 2.8 7.4 3.6.2.1.4-.3.2-.4-2.6-1.2-5.1-2.3-7.6-3.8.1-.9.1-1.8.2-2.7 1.8 1.7 4.7 2.7 7.1 2.8.2 0 .3-.3.1-.4-1.4-.4-2.8-.8-4.2-1.4-1-.5-1.9-1.1-2.9-1.7.1-.9.2-1.7.2-2.6 2.1 1.2 4.2 2.5 6.4 3.3.2.1.3-.2.1-.3-2-1.4-4.3-2.4-6.5-3.4.1-1.1.2-2.1.4-3 1.6 1.1 3.2 2.2 4.9 3.1.2.1.3-.1.1-.2-1.6-1.2-3.3-2.3-5-3.2.3-2.3.6-4.3.8-6 1 .9 2 1.8 3.1 2.5.2.1.4-.1.2-.3-.9-1-2.1-1.9-3.2-2.7.2-1.4.4-2.5.6-3.2 1.4.7 4.1 2.4 6 6.6 2.5 5.4 2.8 21.9 2.9 26.1l-7.3-.2zm-2.3-25.9c-.3-.1-.4.2-.2.4 1.2.9 2.5 1.9 3.8 2.4.2.1.5-.2.3-.4-1.2-1-2.6-1.8-3.9-2.4zm-87.4-12.2c-.1-.8-.4-1.6-.6-2.5-.2-1-.2-1.9-.1-2.9 0-.3-.4-.3-.4 0-.2 1.7-.1 4 .8 5.5.1.2.3.1.3-.1zm1.9.9c.1-1.6-.3-3.4-.5-5 0-.3-.4-.3-.4 0 .1 1.7.1 3.5.5 5.1.1.2.4.1.4-.1zm1.2.1c.1-1.3-.3-2.7-.5-4.1 0-.2-.3-.1-.3.1.1 1.3.1 2.8.5 4.1 0 .2.3.1.3-.1zm2 1c-.2-1.5-.8-2.8-1-4.3 0-.3-.4-.3-.4 0 .1 1.4.3 3.2 1.1 4.4.1.2.3.1.3-.1zm2.1.2c.1.1.2-.1.1-.2-.3-.3-.6-.6-.8-1-.2-.4-.4-.8-.4-1.2 0-.3-.5-.2-.4.1 0 .9.5 2 1.5 2.3zm2.4.7c.1.1.3 0 .3-.2-.4-.9-1.1-1.8-1.7-2.6-.2-.2-.6 0-.4.2.6.9 1.1 1.8 1.8 2.6zm19 .3c.2-.5.2-1.2.2-1.8 0-.2-.4-.2-.4 0-.1.6-.3 1.2-.1 1.8.1.1.3.1.3 0zm1.3-.4c.2-.4.2-.8.3-1.2.1-.5.2-.9.3-1.4.1-.3-.3-.4-.4-.1l-.3 1.5c-.1.4-.2.8-.1 1.2-.1.1.1.2.2 0z" fill="#000000" stroke-width="none" opacity="1"></path></g><g id="svga-group-head" transform="matrix(1,0,0,1,0,0)"><g id="svga-group-ears-left-move" transform="matrix(1,0,0,1,0,0)"><g id="svga-group-ears-left"><path id="SvgjsPath44691" d="M58.9 77.8s-2.5-2.4-5.4-3.5c-2.9-1.1-6.1.7-7.1 3.7-1 2.9 1.3 15.1 5 19.5s6.2 4.8 8.7 2.5c2.6-2.4 7-10.8-1.2-22.2z" fill="#ffffff" stroke-width="none" opacity="1"></path><path id="SvgjsPath44692" d="M56.8 102.3c-1.9-.1-3.8-1.5-6.1-4.2-3.9-4.7-6.3-17.1-5.2-20.5.6-1.8 1.9-3.3 3.6-4.1 1.5-.7 3.2-.8 4.8-.2 3.1 1.2 5.6 3.6 5.7 3.7l.1.1c8.7 12.2 3.5 21.2 1.1 23.5-1.2 1.1-2.4 1.6-3.7 1.6-.1.1-.2.1-.3.1zm-3.6-27.1c-1.3-.5-2.5-.2-3.2.1-1.2.6-2.1 1.6-2.6 2.9-.8 2.5 1.3 14.3 4.9 18.5 1.9 2.3 3.4 3.4 4.7 3.5.8.1 1.6-.3 2.5-1.1 2.1-1.9 6.5-9.8-1.3-20.7-.4-.3-2.6-2.2-5-3.2z" fill="#000000" stroke-width="none" opacity="1"></path><path id="SvgjsPath44693" d="M50.2 77.4c3.3.6 5.4 6.1 6 9.8.1.1.1.2.2.3.4.6-.4 1.2-.8.6-.5-.8-1-1.6-1.8-1.9-1.4-.5-2.1 1.1-1.8 2.6.4 1.9 1.6 3 2.6 4.4.1.1 0 .3-.1.2-1.7-1-4.3-4.8-3.1-7.2.9-1.7 2.3-1.4 3.4-.4-.8-2.1-1.4-4.3-3-5.9-.5-.5-1.5-1.4-2.2-1.3-1.3.2-1.3 2.1-1.3 3.4-.1 1.7.1 3.4.4 5 0 .2-.2.2-.3.1-.6-2.4-2-10.4 1.8-9.7z" fill="#000000" stroke-width="none" opacity="1"></path></g></g><g id="svga-group-ears-right-move" transform="matrix(1,0,0,1,0,0)"><g id="svga-group-ears-right"><path id="SvgjsPath44694" d="M141.1 77.8s2.5-2.4 5.4-3.5c2.9-1.1 6.1.7 7.1 3.7 1 2.9-1.3 15.1-5 19.5s-6.2 4.8-8.7 2.5c-2.6-2.4-7-10.8 1.2-22.2z" fill="#ffffff" stroke-width="none" opacity="1"></path><path id="SvgjsPath44695" d="M142.9 102.3c-1.3 0-2.5-.5-3.7-1.6-2.5-2.2-7.6-11.3 1.1-23.5l.1-.1c.1-.1 2.7-2.5 5.7-3.7 1.5-.6 3.2-.5 4.8.2 1.7.8 3 2.3 3.6 4.1 1.1 3.3-1.3 15.8-5.2 20.5-2.3 2.7-4.2 4.1-6.1 4.2-.1-.1-.2-.1-.3-.1zm-1.1-23.9c-7.8 10.9-3.4 18.8-1.3 20.7.9.8 1.7 1.2 2.5 1.1 1.3-.1 2.8-1.2 4.7-3.5 3.5-4.2 5.7-16.1 4.9-18.5-.4-1.3-1.4-2.4-2.6-2.9-.7-.3-1.9-.6-3.2-.1-2.4 1-4.6 2.9-5 3.2z" fill="#000000" stroke-width="none" opacity="1"></path><path id="SvgjsPath44696" d="M149.8 77.4c-3.3.6-5.4 6.1-6 9.8-.1.1-.1.2-.2.3-.4.6.4 1.2.8.6.5-.8 1-1.6 1.8-1.9 1.4-.5 2.1 1.1 1.8 2.6-.4 1.9-1.6 3-2.6 4.4-.1.1 0 .3.1.2 1.7-1 4.3-4.8 3.1-7.2-.9-1.7-2.3-1.4-3.4-.4.8-2.1 1.4-4.3 3-5.9.5-.5 1.5-1.4 2.2-1.3 1.3.2 1.3 2.1 1.3 3.4.1 1.7-.1 3.4-.4 5 0 .2.2.2.3.1.6-2.4 2-10.4-1.8-9.7z" fill="#000000" stroke-width="none" opacity="1"></path></g></g><g id="svga-group-faceshape-wrap"><g id="svga-group-faceshape-single"><path id="SvgjsPath44769" d="M142.4 53.6c-2.3-11.4-15.1-28.8-42.4-28.8S63.6 38.2 59.6 48.1c-2.5 6.2-3.2 15.2-3.4 19.7 0 0 3.9 43.7 6.1 48.9 3.5 8.3 28.4 28.1 35.5 28.3 8.8.2 33.7-20.6 37.4-27.9 3.6-7.3 8.7-49.3 8.7-49.3-.1-3.2-.4-8.9-1.5-14.2z" fill="#ffffff" stroke-width="none" opacity="1"></path><path id="SvgjsPath44770" d="M97.9 146.2h-.1c-7.5-.2-32.7-20.2-36.5-29-2.3-5.3-6.1-47.5-6.2-49.3v-.2c.2-4.8.9-13.8 3.4-20.1 6.6-16.2 20.1-24 41.5-24 12.3 0 23.2 3.6 31.3 10.4 6.3 5.2 10.9 12.5 12.2 19.3 1.1 5.5 1.3 11.4 1.4 14.4v.2c-.2 1.7-5.1 42.3-8.8 49.7-1.8 3.7-8.8 10.7-17 17.1-4.4 3.5-15.2 11.5-21.2 11.5zM57.3 67.8c1.1 12.2 4.3 44.4 6.1 48.5 3.3 7.9 27.8 27.5 34.4 27.6h.1c3.6 0 11.2-4.2 19.8-10.9 7.8-6.1 14.7-13 16.4-16.4 3.4-6.9 8.3-46.8 8.5-48.8 0-3-.3-8.7-1.4-14-1.3-6.4-5.6-13.1-11.5-18-7.7-6.5-18-9.9-29.9-9.9-20.3 0-33.2 7.4-39.4 22.6-2.2 6-2.9 14.7-3.1 19.3z" fill="#000000" stroke-width="none" opacity="1"></path></g></g><g id="svga-group-mouth-single-move" transform="matrix(1,0,0,1,0,0)"><g id="svga-group-mouth-single"><path id="SvgjsPath44873" d="M117.11 115.24c-.34-.18-.6-.42-.78-.76-.35-.63-1.32-.07-.97.57.05.09.12.16.18.24-.01 0-.02 0-.03.01a38.04 38.04 0 0 1-7.15 2.53.56.56 0 0 0-.26-.01c-2.35.46-4.66.17-7.03.14-.74-.01-1.58.02-1.84.66-.71-.88-1.89-.76-3.04-.77-2.01-.01-4.03.01-6.04-.01h-.03c-1.84-.45-3.64-1.04-5.41-1.76l-.03-.03c.03-.17 0-.35-.14-.49-.2-.2-.6-.23-.79 0-.3.35-.59.7-.89 1.05-.2.23-.23.57 0 .79.2.2.6.23.79 0 .12-.14.24-.28.35-.42.02.01.03.03.05.04h.01c2.85 2.85 5.63 5.83 8.62 8.54 2.43 2.21 5.3 2.28 8.46 2.17 3.4-.13 5.96-1.38 8.39-3.76 2.48-2.43 4.79-5.09 6.93-7.83.03.01.04.04.07.05.27.14.61.07.77-.2.16-.23.08-.61-.19-.75zm-30.48 2.75c9.03 3.05 18.91 2.7 27.73-.97-1.34 1.61-2.75 3.16-4.18 4.68-6.42 2.51-13.26 2.45-19.73.02-.02-.01-.03.01-.05 0-1.26-1.24-2.51-2.48-3.77-3.73zm22.46 4.84-.06-.12c.09-.03.19-.06.28-.1l-.22.22zm-.5.49c-.07-.13-.15-.27-.22-.4.04-.01.08-.02.12-.04v.02c.06.11.11.23.17.34-.02.03-.04.06-.07.08zm-.89.77c-.19-.27-.38-.55-.57-.82.07-.02.15-.03.22-.05l.39.84c-.02.01-.03.02-.04.03zm-.65.48-1.03-1.03.52-.12c.24.34.47.68.71 1.02-.07.04-.13.08-.2.13zm-.83.54c-.31-.48-.62-.96-.92-1.44l.18-.03c-.01.07.01.15.08.22l1.04 1.04c-.13.07-.26.14-.38.21zm-.72.4c-.3-.57-.61-1.14-.91-1.72.04-.01.08-.01.12-.02v.01l1.02 1.59c-.08.06-.15.11-.23.14zm-.54.24c-.44-.58-.81-1.2-1.13-1.84.06-.01.11-.02.17-.02l.99 1.86c-.02-.01-.03-.01-.03 0zm-.91.34c-.48-.65-.89-1.34-1.25-2.07.14-.01.28-.02.42-.04.34.7.74 1.36 1.21 1.99-.12.04-.25.08-.38.12zm-.68.19c-.57-.73-1.14-1.46-1.7-2.18.18-.01.36-.01.53-.03.35.77.8 1.49 1.29 2.18-.04 0-.08.02-.12.03zm-.83.16c-.44-.58-.82-1.18-1.16-1.82l1.39 1.78c-.08.02-.15.03-.23.04zm-.85.13c-.6-.78-1.14-1.59-1.62-2.45h.44c0 .02-.01.04 0 .07.39.83.88 1.6 1.42 2.35l-.24.03zm-.97.05c-.54-.8-1.01-1.63-1.41-2.51.05 0 .09.01.14.01.01.03-.01.05.01.08.47.84 1 1.64 1.57 2.41-.1 0-.2.01-.31.01zm-.77.02c-.53-.86-1.06-1.72-1.59-2.59.11.01.22.01.33.02v.03c.39.89.86 1.73 1.39 2.54h-.13zm-2.19-.05c-.62-.89-1.18-1.82-1.67-2.8.03.01.07.01.1.02 0 .04.01.09.05.13.66.92 1.4 1.78 2.09 2.68l-.57-.03zm-.97-.12c-.53-.92-1.03-1.86-1.5-2.82.04.01.08.02.11.02v.02c.47.98 1.03 1.9 1.63 2.8-.08 0-.16 0-.24-.02zm-1.71-.55c-.59-.9-1.18-1.81-1.78-2.71.1.03.2.05.3.08.53.9 1.06 1.79 1.59 2.69a1.09 1.09 0 0 0-.11-.06zm-1.74-1.26c-.38-.53-.7-1.1-.97-1.7.05.01.1.03.14.04.01.02 0 .03.01.05l1.38 2.1c-.19-.16-.38-.32-.56-.49zm2.68 1.61c-.55-.93-1.1-1.87-1.65-2.8.07.02.15.03.22.05.45.94.94 1.85 1.45 2.76-.01 0-.02-.01-.02-.01zm2.97.37c.01-.01.01-.02.02-.03-.17-.18-.31-.42-.46-.61-.54-.7-1.1-1.38-1.63-2.08.25.03.51.05.76.08.01.01 0 .02 0 .03.54.87 1.08 1.75 1.61 2.62-.1-.01-.2-.01-.3-.01zm2.11-2.52c.01 0 .01 0 0 0 .01 0 .01 0 0 0 .01 0 0 0 0 0zm-9.81-1.51c.15.05.31.1.46.15-.01.05-.03.09-.01.15.04.1.09.19.13.29l-.09-.09c-.16-.17-.33-.33-.49-.5z" fill="#000000" stroke-width="none" opacity="1"></path></g></g><g id="svga-group-eyes-left-move" transform="matrix(1,0,0,1,0,0)"><g id="svga-group-eyes-left"><g id="svga-group-eyesback-left"></g><g id="svga-group-eyesiriswrapper-left"><g id="svga-group-eyesiriscontrol-left" transform="matrix(1,0,0,1,0,0)"><g id="svga-group-eyesiris-left"><path id="SvgjsPath44804" d="M83.8 89.7c1.1-2 .1-4.9-1.7-6.1-2-1.3-4.8-.9-6.3 1.3-.8 1.2-1.2 2.8-.6 4.1.2.4.8 1.9 2 2.5 2.3 1.2 5.3.6 6.6-1.8z" fill="#ffffff" stroke-width="none" opacity="1"></path><path id="SvgjsPath44805" d="M80.9 88.7c.3 0 .5.1.6.3.3-.3.4-.7.4-1.2s-.2-.9-.5-1.2c-.2-.6-.7-1.1-1.4-1.3-.4-.1-.8-.1-1.2 0 .2.7-.1 1.5-.8 1.9-.3.2-.7.3-1.1.2-.1.7.2 1.5.8 2 .7.6 1.7.7 2.4.3-.1-.3.1-1 .8-1zm3.1-2.6c-.2-.6-.4-1.2-.8-1.7-.2-.3-.4-.5-.6-.8-.2-.2-.5-.4-.8-.6-.6-.3-1.2-.6-1.9-.7s-1.4-.1-2.1.1c-.7.2-1.3.5-1.8 1-.5.4-1 1-1.3 1.6-.3.6-.5 1.3-.6 2-.1.7.1 1.5.4 2.1.3.6.6 1.2 1.1 1.7.2.2.5.5.8.7.2.1.3.2.5.3.1 0 .2.1.2.1.1 0 .2.1.2.1 1.2.4 2.6.4 3.8 0 .6-.2 1.1-.5 1.6-.9s.8-.9 1.1-1.4c-.1.3-.3.5-.5.8-.2.2-.4.4-.7.6-.5.4-1 .6-1.6.8s-1.2.1-1.8 0-1.1-.3-1.6-.6c-.1 0-.1-.1-.2-.1s-.1-.1-.2-.1c-.1-.1-.2-.2-.3-.2-.2-.2-.3-.4-.5-.6s-.3-.5-.4-.7-.2-.5-.3-.8c-.2-.6-.2-1.3 0-1.9-.2-.3-.3-.6-.3-.9 0-1.1 1.1-2 2.2-1.7.2-.2.5-.3.7-.4 1-.4 2.1-.4 3.2 0 1 .4 1.9 1.3 2.3 2.4.2.6.3 1.2.3 1.8 0 .6-.1 1.2-.4 1.8.3-.5.4-1.2.5-1.8.1-.8 0-1.4-.2-2z" fill="#000000" stroke-width="none" opacity="1"></path></g></g></g><g id="svga-group-eyesfront-left"><path id="SvgjsPath45739" d="M79 72.1c-8.2 0-14.8 6.6-14.8 14.8s6.6 14.8 14.8 14.8 14.8-6.6 14.8-14.8c0-8.1-6.6-14.8-14.8-14.8zM86.6 91c-1 .7-4.1 2.3-8.1 2.2s-11-2.6-11.7-3.5c-.7-1 2-3.2 3.2-4 1.1-.8 4.2-3.3 7.8-3.4 3.6-.1 6.2.8 8.4 2.2 2.2 1.3 3.7 3.7 3.7 3.7s-2.4 2.2-3.3 2.8z" fill="#ffffff" stroke-width="none" opacity="1"></path><path id="SvgjsPath45740" d="M79.4 93.7h.3c5.7-.1 9.7-4.3 9.8-4.5.2-.2.2-.5 0-.7s-.5-.2-.7 0c0 0-3.9 4.1-9.2 4.2-5.3.1-11.5-2.6-12.5-3.4.2-1 4.8-5.5 8.2-6.2 3.4-.7 10.8-.5 14.4 5.8.1.2.4.3.7.2.2-.1.3-.4.2-.7-3.9-6.7-11.8-7-15.4-6.2-3.4.7-8.4 5.1-8.9 6.8-.1.5 0 .8.2.9 1 1 7.4 3.8 12.9 3.8z" fill="#000000" stroke-width="none" opacity="1"></path></g></g></g><g id="svga-group-eyes-right-move" transform="matrix(1,0,0,1,0,0)"><g id="svga-group-eyes-right"><g id="svga-group-eyesback-right"></g><g id="svga-group-eyesiriswrapper-right"><g id="svga-group-eyesiriscontrol-right" transform="matrix(1,0,0,1,0,0)"><g id="svga-group-eyesiris-right"><path id="SvgjsPath44806" d="M125.8 89.7c1.1-2 .1-4.9-1.7-6.1-2-1.3-4.8-.9-6.3 1.3-.8 1.2-1.2 2.8-.6 4.1.2.4.8 1.9 2 2.5 2.3 1.2 5.3.6 6.6-1.8z" fill="#ffffff" stroke-width="none" opacity="1"></path><path id="SvgjsPath44807" d="M122.9 88.7c.3 0 .5.1.6.3.3-.3.4-.7.4-1.2s-.2-.9-.5-1.2c-.2-.6-.7-1.1-1.4-1.3-.4-.1-.8-.1-1.2 0 .2.7-.1 1.5-.8 1.9-.3.2-.7.3-1.1.2-.1.7.2 1.5.8 2 .7.6 1.7.7 2.4.3 0-.3.2-1 .8-1zm3.2-2.6c-.2-.6-.4-1.2-.8-1.7-.2-.3-.4-.5-.6-.8-.2-.2-.5-.4-.8-.6-.6-.3-1.2-.6-1.9-.7s-1.4-.1-2.1.1c-.7.2-1.3.5-1.8 1-.5.4-1 1-1.3 1.6-.3.6-.5 1.3-.6 2-.1.7.1 1.5.4 2.1.3.6.6 1.2 1.1 1.7.2.2.5.5.8.7.2.1.3.2.5.3.1 0 .2.1.2.1.1 0 .2.1.2.1 1.2.4 2.6.4 3.8 0 .6-.2 1.1-.5 1.6-.9s.8-.9 1.1-1.4c-.1.3-.3.5-.5.8-.2.2-.4.4-.7.6-.5.4-1 .6-1.6.8s-1.2.1-1.8 0-1.1-.3-1.6-.6c-.1 0-.1-.1-.2-.1s-.1-.1-.2-.1c-.1-.1-.2-.2-.3-.2-.2-.2-.3-.4-.5-.6s-.3-.5-.4-.7-.2-.5-.3-.8c-.2-.6-.2-1.3 0-1.9-.2-.3-.3-.6-.3-.9 0-1.1 1.1-2 2.2-1.7.2-.2.5-.3.7-.4 1-.4 2.1-.4 3.2 0 1 .4 1.9 1.3 2.3 2.4.2.6.3 1.2.3 1.8 0 .6-.1 1.2-.4 1.8.3-.5.4-1.2.5-1.8 0-.8-.1-1.4-.2-2z" fill="#000000" stroke-width="none" opacity="1"></path></g></g></g><g id="svga-group-eyesfront-right"><path id="SvgjsPath45741" d="M121 72.1c-8.2 0-14.8 6.6-14.8 14.8s6.6 14.8 14.8 14.8 14.8-6.6 14.8-14.8c0-8.1-6.6-14.8-14.8-14.8zm-.1 21.1c-3.9.1-7.1-1.5-8.1-2.2s-3.4-2.8-3.4-2.8 1.5-2.4 3.7-3.7c2.2-1.3 4.9-2.2 8.4-2.2 3.6.1 6.6 2.6 7.8 3.4 1.1.8 3.9 3.1 3.2 4-.7 1-7.7 3.4-11.6 3.5z" fill="#ffffff" stroke-width="none" opacity="1"></path><path id="SvgjsPath45744" d="M120 93.7h-.3c-5.7-.1-9.7-4.3-9.8-4.5-.2-.2-.2-.5 0-.7s.5-.2.7 0c0 0 3.9 4.1 9.2 4.2 5.3.1 11.5-2.6 12.5-3.4-.2-1-4.8-5.5-8.2-6.2-3.4-.7-10.8-.5-14.4 5.8-.1.2-.4.3-.7.2-.2-.1-.3-.4-.2-.7 3.9-6.7 11.8-7 15.4-6.2 3.4.7 8.4 5.1 8.9 6.8.1.5 0 .8-.2.9-1 1-7.4 3.8-12.9 3.8z" fill="#000000" stroke-width="none" opacity="1"></path></g></g></g><g id="svga-group-facehighlight-single"></g><g id="svga-group-eyebrows-left-move" transform="matrix(1,0,0,1,0,0)"><g id="svga-group-eyebrows-left-rotate" transform="matrix(1,1.7453292519943295e-9,-1.7453292519943295e-9,1,1.2851410247094464e-7,-1.3499310114184482e-7)"><g id="svga-group-eyebrows-left"><path id="SvgjsPath45097" d="M63.38 74.47c.22-.18 5.53-4.4 8.18-4.68 2.64-.28 18.4 3.81 19.44 5.45.47.75.57 1.33.28 1.75-.23.33-.68.5-1.35.5-.44 0-.98-.07-1.61-.21-1.05-.23-3.78-1.19-6.94-2.29-4.07-1.43-8.69-3.04-9.81-3.12-1.58-.1-6.16 2.28-7.79 3.21-.16.09-.37.04-.48-.11a.408.408 0 0 1 .08-.5z" fill="#000000" stroke-width="none" opacity="1"></path></g></g></g><g id="svga-group-eyebrows-right-move" transform="matrix(1,0,0,1,0,0)"><g id="svga-group-eyebrows-right-rotate" transform="matrix(1,1.7453292519943295e-9,-1.7453292519943295e-9,1,1.2851410247094464e-7,-2.140719459475804e-7)"><g id="svga-group-eyebrows-right"><path id="SvgjsPath45098" d="M136.62 74.47c-.22-.18-5.53-4.4-8.18-4.68-2.64-.28-18.4 3.81-19.44 5.45-.47.75-.57 1.33-.28 1.75.23.33.68.5 1.35.5.44 0 .98-.07 1.61-.21 1.05-.23 3.78-1.19 6.94-2.29 4.07-1.43 8.69-3.04 9.81-3.12 1.58-.1 6.16 2.28 7.79 3.21.16.09.37.04.48-.11.09-.17.06-.38-.08-.5z" fill="#000000" stroke-width="none" opacity="1"></path></g></g></g><g id="svga-group-beardwrap"><g id="svga-group-beard-single-move" transform="matrix(1,0,0,1,0,0)"><g id="svga-group-beard-single"></g></g></g><g id="svga-group-mustache-single-move" transform="matrix(1,0,0,1,0,0)"><g id="svga-group-mustache-single"></g></g><g id="svga-group-nose-single-move" transform="matrix(1,0,0,1,0,0)"><g id="svga-group-nose-single"><path id="SvgjsPath44849" d="M107.56 107.36c.81-.3 1.49-2.07 1.08-3.48-.41-1.41-3.64-4.3-7.2-4.88-3.56-.58-10.1 0-11.84 3.15-1.74 3.15-.33 5.38 1.08 5.38s4.47-1.16 4.47-1.16 2.15 1.74 3.56 1.74 4.72-1.66 4.72-1.66 2.31 1.57 4.13.91z" fill="#ffffff" stroke-width="none" opacity="1"></path><path id="SvgjsPath44850" d="M107.91 105.78c-.8-.68-2.14-.72-3.09-.49-2.6.6-4.35 2.98-7.21 1.73-1.73-.76-3.19-2.15-5.16-2.3-.92-.07-2.33.14-2.9.97-.52.75-.06 1.53.68 1.91 1.31.67 3.15-.13 4.41-.74 1.35.73 2.59 1.71 4.16 1.92 1.54.21 2.86-.48 4.17-1.19.24-.13.47-.25.7-.37 1.15.55 3.04 1.28 4.18.46.71-.51.7-1.35.06-1.9zm-17.14.61c.31-.46 1.31-.38 2-.23-.11.03-.22.07-.33.1-.19.05-1.64.09-1.67.13z" fill="#000000" stroke-width="none" opacity="1"></path><path id="SvgjsPath44851" d="M95.63 96.37c-.15-7.79.12-15.57.8-23.33.08-.87-1.28-.86-1.36 0-.68 7.76-.95 15.54-.8 23.33.02.87 1.38.88 1.36 0z" fill="#000000" stroke-width="none" opacity="1"></path></g></g><g id="svga-group-hair-front"><path id="SvgjsPath44963" d="M126.1 44.8s-4.2 10.9-22.1 17.7c0 0-1.2-.2 2.3-4 3.5-3.7-9.5 5.6-13.2 6.3-3.7.7 7.4-9.3 7.4-9.3S82.8 67.3 81 66.4c-1.9-.9 7.4-8.4 7.4-8.4S74 68.2 71.9 68.7 80 57.5 80 57.5s-11.2 7.9-13.9 15.8c-2.8 7.9-4.4 7-4.4 3.5s1.9-10 1.9-10-4.2 5.1-3.5 15.6.9 16.3-.7 13.7c-1.6-2.6-4-17.4-4-17.4s1.2 11.9-.7 10.9c-1.9-.9-6-18.6-6-24.4s1.4-15.3 4-19.8c0 0-3.3 6.5-5.6 9.3s2.6-12.3 6.7-17.2 12.6-10.2 12.6-10.2-11.2 5.3-8.8 2.6c2.3-2.8 20.9-18.1 50.4-10.7 0 0-6-3.5-9.3-5.6s10.7.2 14.9 2.8c4.2 2.6 8.1 8.4 8.1 8.4s13.9.7 19.5 3.5-7 .2-11.4.9c0 0 11.2 5.6 15.8 9.5s7.7 10.9 5.6 10.2-6.3-5.8-6.3-5.8 4 7.9 5.6 16.5 2.3 15.8.9 19.8-3.5-12.8-3.5-12.8.5 11.4-1.9 19.5c-2.3 8.1-5.3 11.9-5.8 8.6s2.1-9.5 2.1-14.9S140 68 140 68s.7 8.8-1.2 6.3c-1.9-2.6-4-8.4-6.3-13-2.2-4.7-5.7-4.9-6.4-16.5z" fill="#ffffff" stroke-width="none" opacity="1"></path><path id="SvgjsPath44964" d="M151.5 59.4c-.8-4.3-2.2-8.4-3.4-11.4 1 .9 2 1.6 2.8 1.9.9.3 1.5-.1 1.8-.6 1.1-2-2.8-8.3-6.4-11.3-3.1-2.6-8.8-5.9-12.5-7.8 1.1.1 2.4.2 3.5.2 4.5.4 6 .5 6.3-.8.3-1.1-1-1.8-1.9-2.2-5.2-2.6-16.9-3.4-19.4-3.6-1-1.4-4.4-6-8.2-8.3-2.7-1.6-15.4-5.1-16.7-3.1-.2.2-.6 1.1.8 2 1.1.7 2.6 1.7 4.1 2.5C73.2 12.2 57 29 56.8 29.2c-.8.9-.6 1.6-.3 2 .3.3.6.7 2.5.3-2.1 1.7-4.3 3.6-5.9 5.4-3.4 4-8.2 16.4-7.5 18.4.1.4.5.7.9.8.7.1 1.2-.5 1.4-.7.3-.4.6-.8 1-1.3-.8 4-1.1 8.2-1.1 11.1 0 5.1 4 24 6.6 25.3.5.2 1 .2 1.4-.1.3-.2.5-.5.7-1.1.7 3.2 1.5 6.2 2.2 7.3.5.7.9 1.1 1.5 1.1.1 0 .3 0 .4-.1 1.3-.4 1.6-1.9.7-15.3-.3-1.1-.3-2.2-.3-3.2.3.8.7 1.2 1.4 1.3 1.1.2 2.5-.5 4.7-6.7.8-2.3 2.5-4.7 4.3-6.9-1 1.6-.8 2-.6 2.3.2.3.7.7 1.3.5 1-.2 4.4-2.3 7.9-4.7-.2.4-.3.8-.3 1.1.1.5.3.9.8 1.1 1.2.6 5.3-1.3 12.4-5.7-2 2.4-1.7 3.1-1.5 3.5.2.3.6.9 1.8.7 2-.4 5.9-2.7 9.4-4.8.2-.1.5-.3.7-.4-.6 1-.6 1.6-.5 2 .2.5.6.8.9.9h.5c12.5-4.7 18.5-11.4 21-15.3.8 6.1 2.5 8.4 4.3 10.5.7 1 1.4 1.8 2.1 3.1.9 1.8 1.7 3.7 2.5 5.6 1.3 3.1 2.6 5.9 3.8 7.6.7 1 1.5.9 1.8.8.2-.1.6-.2.9-1 .3 1.7.6 3.5.6 5.2 0 2.6-.6 5.5-1.2 8-.6 2.8-1.1 5.2-.9 7 .2 1.7 1.1 2 1.6 2 2.9.2 5.4-8 6.1-10.5.8-3 1.3-6.3 1.6-9.4.9 3.9 1.7 4 2.2 4 .4 0 1.1-.1 1.5-1.3 1.6-3.6 1.3-10-.6-20.2zm-.6 18.2c-.6-2.4-1.4-7-1.9-11.1-.1-.5-.5-.9-1.1-.9-.5 0-.9.5-.9 1 0 .1.4 11.3-1.8 19.2-1.4 5-3 7.9-3.9 8.8-.2-1.4.3-3.8.9-6.3.6-2.6 1.2-5.6 1.2-8.4 0-5.5-2.3-11.9-2.4-12.2-.1-.4-.5-.7-.9-.7h-.2c-.5.1-.8.6-.8 1.1.1 1.6.2 3.5.1 4.7-.9-1.6-2-3.9-3-6.4-.8-1.9-1.7-3.8-2.6-5.6-.7-1.4-1.5-2.4-2.3-3.4-1.9-2.4-3.7-4.7-4.1-12.7 0-.5-.4-.9-.8-.9-.5-.1-.9.2-1.1.6 0 .1-3.9 9.7-19.4 16.3.3-.4.7-.9 1.3-1.5.5-.5 1.3-1.4.6-2.2-.7-.9-1.4-.5-6 2.2-2.5 1.5-5.7 3.4-7.7 4.2 1.4-1.7 4.4-4.7 7.2-7.2.4-.4.4-.9.1-1.4-.3-.4-.9-.5-1.3-.2-7 4.7-14.8 9.4-17.7 10.6 1.1-1.5 4.1-4.2 6.8-6.4.4-.3.5-1 .2-1.4s-.9-.5-1.4-.2c-5.1 3.6-10.8 7.5-13.9 9.3 1.6-2.1 4.3-5.5 6.9-8.3.3-.4.3-1 0-1.3-.3-.4-.9-.4-1.3-.1-.7.3-11.7 8.1-14.5 16.2-1.1 3.2-1.9 4.6-2.4 5.1-.1-.3-.1-.7-.1-1.3 0-3.3 1.8-9.7 1.8-9.7.1-.5-.1-.9-.5-1.2-.4-.2-.9-.1-1.2.3-.2.2-4.4 5.5-3.7 16.3.2 3.3.6 8.7.5 11.6-1.1-3.3-2.4-10.7-3.2-15.5-.1-.5-.6-.9-1.1-.8s-.9.6-.9 1.1c.3 3.3.5 7.2.3 9.1-1.7-3.8-5-17.4-5-22.6 0-5.6 1.2-13.7 3.3-18.2.3-.6.5-1.1.6-1.1.2-.5.1-1.1-.4-1.3-.5-.3-1.1-.1-1.3.4l-.6 1.2c-.6 1.2-1.7 3.3-2.9 5.1 1.3-4 3.9-10.3 6.3-13 4-4.7 12.2-10 12.3-10 .4-.3.6-.9.3-1.3-.3-.5-.8-.6-1.3-.4-2.1 1-4.5 2-6.2 2.7 5.6-4.9 23.1-15.2 48-8.9.5.1 1-.1 1.2-.6s0-1-.4-1.2c-.1 0-4.2-2.4-7.4-4.4 3.4.4 9.5 1.8 12 3.3 3.9 2.4 7.8 8 7.8 8.1.2.3.5.4.8.4.1 0 11.5.6 17.6 2.7-.6 0-1.2-.1-1.8-.1-2.8-.2-5.9-.5-7.8-.2-.4.1-.8.4-.8.8s.2.9.5 1c.1.1 11.1 5.6 15.6 9.4 3.1 2.6 5.1 6.3 5.7 8.1-1.5-1-3.7-3.5-5-5-.3-.4-.9-.5-1.3-.2s-.6.8-.4 1.3c0 .1 3.9 7.9 5.5 16.2 1.5 8 1.9 13.8 1.3 17.4zm-30.7-37.4c-3.5 4.5-7.9 8-13.1 10.4-.7.3-.1 1.4.6 1.1 5.3-2.4 9.8-6 13.4-10.6.5-.7-.4-1.6-.9-.9zm-5.8-2.3c-4.5 4.5-9.7 7.9-15.5 10.3-.7.3-.4 1.5.3 1.2 6.1-2.5 11.4-6 16.1-10.6.5-.6-.3-1.5-.9-.9zm-14.6 3.2c-6.2 4.2-12.7 8-19.4 11.3-.7.4-.1 1.4.6 1.1 6.8-3.3 13.2-7 19.4-11.3.7-.5.1-1.6-.6-1.1zm-20.6 7.6c-6.1 4-11.3 9-15.5 15-.5.7.6 1.3 1.1.6 4-5.8 9.1-10.7 15-14.5.7-.5.1-1.6-.6-1.1zM64 55.2c-2.5 4-4.6 8.1-6.4 12.5-.3.7.9 1.1 1.2.3 1.7-4.3 3.8-8.3 6.2-12.2.5-.7-.6-1.3-1-.6zm-9.1 7c-1 4.5-1.3 9.1-.9 13.7.1.8 1.3.8 1.3 0-.4-4.5-.1-9 .9-13.4.1-.7-1.1-1-1.3-.3zm50.6-24.7c-.7.4-.1 1.5.6 1.1 3.6-2.1 6.6-5 8.8-8.4.4-.7-.6-1.3-1.1-.6-2.1 3.2-4.9 5.8-8.3 7.9zM86 44.4c6.1-2.8 11.4-6.6 16-11.5.6-.6-.3-1.5-.9-.9-4.5 4.8-9.8 8.6-15.8 11.3-.6.3 0 1.4.7 1.1zm-5.6-6.3c-5.1 3.2-9.9 6.7-14.5 10.7-.6.5.3 1.4.9.9 4.5-3.9 9.2-7.3 14.2-10.5.7-.4.1-1.5-.6-1.1zm-11.2-3c.7-.4.1-1.5-.6-1.1-6.7 4.2-11.4 10.4-13.7 18-.2.8 1 1.1 1.2.3 2.1-7.2 6.7-13.2 13.1-17.2zm3.6-6.5c4-2.6 8.4-4.4 13.1-5.4.8-.2.5-1.4-.3-1.2-4.8 1-9.3 2.9-13.4 5.5-.7.4-.1 1.5.6 1.1zm10.7 2.6c3-1.7 6.3-2.8 9.7-3.3.8-.1.5-1.3-.3-1.2-3.6.5-6.9 1.7-10 3.5-.7.3-.1 1.4.6 1zm16.9-6.7c3.7.1 7.2.8 10.6 2 .8.3 1.1-.9.3-1.2-3.6-1.3-7.2-1.9-11-2.1-.7 0-.7 1.3.1 1.3zm24.8 7.6c-.5 2.8-1.3 5.5-2.4 8.1-.3.7.9 1.1 1.2.3 1.1-2.6 1.9-5.3 2.4-8.1.1-.8-1.1-1.1-1.2-.3zm4.3 4.6c.1-.8-1.2-.8-1.3 0-.3 3.7.1 7.2 1.1 10.8.2.8 1.4.4 1.2-.3-1-3.5-1.3-7-1-10.5zm4.4 17.2c-.3-.7-1.5-.4-1.2.3 1 2.5 2.4 4.9 4.1 7 .5.6 1.4-.3.9-.9-1.6-1.9-2.9-4-3.8-6.4zm2.1-4.6c-1.9-2.6-3-5.5-3.5-8.7-.1-.8-1.3-.5-1.2.3.5 3.3 1.7 6.3 3.6 9 .5.7 1.6.1 1.1-.6zm3.5 5.1c-.4-.7-1.5-.1-1.1.6 1.6 2.5 2.9 5 4.1 7.7.3.7 1.4.1 1.1-.6-1.2-2.7-2.6-5.3-4.1-7.7zm4.4 13.6c.1 2.1.3 4.1.4 6.2 0 .8 1.3.8 1.3 0-.1-2.1-.3-4.1-.4-6.2-.1-.8-1.3-.8-1.3 0zm-2.1-21.4c-1-1.7-1.9-3.5-2.9-5.2-.4-.7-1.5-.1-1.1.6 1 1.7 1.9 3.5 2.9 5.2.4.7 1.5.1 1.1-.6zm2.4 9.7c1.1 2.4 1.8 4.8 2.3 7.4.1.8 1.3.5 1.2-.3-.4-2.7-1.2-5.2-2.4-7.7-.4-.7-1.5-.1-1.1.6z" fill="#000000" stroke-width="none" opacity="1"></path></g><g id="svga-group-glasses-single-move" transform="matrix(1,0,0,1,0,0)"><g id="svga-group-glasses-single"><path id="SvgjsPath45927" d="M94 84.7c-1.1-5-4.7-12-15.5-12.3s-15.6 7.8-16.5 15c-.8 7.2 4.9 13.9 8.8 15.6 3.8 1.7 11.7 3.3 17.7-2.1s6.6-11.3 5.5-16.2z" fill="#000000" stroke-width="none" opacity="1"></path><path id="SvgjsPath45928" d="M105.4 84.7c1.1-5 4.7-12 15.5-12.3s15.6 7.8 16.5 15-4.9 13.9-8.8 15.6-11.7 3.3-17.7-2.1c-6.1-5.5-6.6-11.3-5.5-16.2z" fill="#000000" stroke-width="none" opacity="1"></path><path id="SvgjsPath45929" d="m65.6 88.7 13.6-11.3.2.2-13.6 11.3-.2-.2zm7.8 12L87 89.4l.2.2-13.6 11.3-.2-.2zm-1.3-5 18.5-15.4.2.2-18.5 15.4-.2-.2zm-5.4-1.4 18.2-15.1.2.2-18.2 15.1-.2-.2z" fill="#ffffff" stroke-width="none" opacity="1"></path><path id="SvgjsPath45930" d="m108 88.7 13.6-11.3.2.2-13.6 11.3-.2-.2zm7.7 12 13.6-11.3.2.2-13.6 11.3-.2-.2zm-1.2-5L133 80.3l.2.2-18.5 15.4-.2-.2zm-5.4-1.4 18.2-15.1.2.2-18.2 15.1-.2-.2z" fill="#ffffff" stroke-width="none" opacity="1"></path><path id="SvgjsPath45931" d="M140.5 86.2c-.2-.1-1.7-.1-2.6-.1-1.2-7.1-6.3-14.8-17.1-14.4-10.6.3-14.5 6.8-15.8 11.5-.5-.6-1.3-1-1.8-1.1-.6-.1-4.8-.2-6.5-.1-1.8.2-2.2 1.2-2.2 1.2l-.1.1C93 78.6 89.2 72 78.5 71.7c-10.7-.4-15.7 7.3-17 14.4-.9 0-2.4 0-2.5.1-.2.2 0 2.1 0 2.1l2.3.1c-.2 6.9 5.1 13.5 9.3 15.3 1 .4 4.2 1.7 8.1 1.7 3.3 0 7.1-.9 10.4-3.9 5.2-4.7 7.1-10.2 5.7-16.8.1-.2.2-.3.3-.5.3-.4 1.1-1.1 1.8-1.2.7-.1 4.7 0 5.3 0s1.4.4 1.8.8c.2.2.4.6.6.9-1.4 6.6.4 12.1 5.7 16.8 3.3 3 7.1 3.9 10.4 3.9 3.9 0 7.1-1.2 8.1-1.7 4.2-1.8 9.5-8.4 9.3-15.3l2.3-.1c.1 0 .3-1.9.1-2.1zm-52.4 14.1c-6.6 6-15.3 2.7-16.9 2-3.3-1.4-9.2-7.8-8.3-14.8.8-6.7 5.2-14.3 15.1-14.3h.6c10.1.3 13.6 6.5 14.8 11.7 1.2 6-.5 11-5.3 15.4zm40.2 1.9c-1.7.7-10.3 4-16.9-2-4.8-4.4-6.5-9.4-5.2-15.4 1.1-5.2 4.6-11.4 14.8-11.7h.6c9.9 0 14.3 7.7 15.1 14.3.7 7-5.1 13.4-8.4 14.8z" fill="#ffffff" stroke-width="none" opacity="1"></path><path id="SvgjsPath45932" d="M78.6 72.9c-10.5-.3-15.2 7.7-16 14.5-.8 7.1 5.1 13.6 8.5 15 .9.4 3.9 1.6 7.6 1.6 3 0 6.5-.8 9.6-3.6 4.9-4.4 6.6-9.6 5.3-15.7-1.2-5.1-4.8-11.5-15-11.8zm9.3 27.2c-6.5 5.9-15 2.6-16.7 1.9-3.3-1.4-9-7.7-8.2-14.5.8-6.5 5.1-14.1 14.9-14.1h.6c10 .3 13.4 6.4 14.5 11.5 1.4 5.9-.3 10.9-5.1 15.2zM140.6 86c-.1-.1-.2-.2-2.5-.2-1.3-7.2-6.5-14.8-17.3-14.4-10.3.3-14.3 6.2-15.9 11.3-.5-.5-1.2-.8-1.6-.9-.7-.1-4.8-.2-6.6-.1-1.2.1-1.8.6-2.2 1-1.6-5.1-5.7-11-15.9-11.3-10.7-.3-15.9 7.2-17.3 14.4-2.2 0-2.4.1-2.5.2-.1.1-.3.2-.1 2.3v.2H61c-.1 7.2 5.5 13.6 9.4 15.3.9.4 4.2 1.7 8.2 1.7 4.1 0 7.7-1.3 10.6-4 5.3-4.8 7.2-10.3 5.8-17 .1-.1.2-.3.2-.4.3-.4 1-1 1.7-1.1.7-.1 4.5 0 5.3 0 .6 0 1.3.4 1.7.8.1.1.3.3.5.8-1.4 6.6.5 12.2 5.8 16.9 2.9 2.6 6.5 4 10.6 4 4 0 7.3-1.3 8.2-1.7 4-1.7 9.6-8.1 9.4-15.3h2.3v-.2c.2-2 0-2.2-.1-2.3zm-.4 2-2.3.1v.2c.2 7-5.2 13.4-9.1 15.1-.9.4-4.1 1.7-8 1.7-4 0-7.4-1.3-10.2-3.8-5.2-4.7-7-10.1-5.6-16.5v-.2c-.2-.5-.5-.8-.7-1-.5-.4-1.2-.8-2-.9-.4 0-2.1-.1-3.5-.1-.9 0-1.6 0-1.9.1-.8.2-1.7.9-2 1.3-.1.2-.2.3-.3.5v.2c1.4 6.5-.4 11.9-5.6 16.6-2.8 2.6-6.3 3.8-10.2 3.8-3.9 0-7.1-1.3-8-1.7-3.9-1.7-9.4-8-9.1-15.1v-.2l-2.5-.1c-.1-.7-.1-1.4 0-1.6.2 0 .9-.1 2.4-.1h.2v-.2C63 79 68.1 71.6 78.6 71.9c10.3.3 14.2 6.4 15.6 11.4l.2.5.4-.6s.4-.9 2-1c1.8-.2 5.9-.1 6.4.1.4.1 1.2.6 1.7 1.1l.3.3.1-.4c1.5-5 5.4-11 15.6-11.4 10.5-.3 15.6 7.1 16.8 14.2v.2h.2c1.4 0 2.2 0 2.4.1 0 .3 0 1-.1 1.6zm-18.7-15.1h-.6c-10.3.3-13.8 6.7-15 11.9-1.3 6.1.4 11.2 5.3 15.7 3.1 2.8 6.5 3.6 9.6 3.6 3.7 0 6.7-1.2 7.6-1.6 3.4-1.5 9.3-7.9 8.5-15-.8-6.8-5.3-14.6-15.4-14.6zm6.7 29.1c-1.6.7-10.1 4-16.7-1.9-4.8-4.3-6.4-9.3-5.1-15.2 1.1-5.1 4.6-11.2 14.5-11.5h.6c9.8 0 14.1 7.6 14.8 14.1.8 6.8-4.9 13.1-8.1 14.5z" fill="#000000" stroke-width="none" opacity="1"></path></g></g></g></g></g><rect id="svga-credit-rect" width="200" height="15" x="0" y="185" fill="#ecf0f1" opacity="0.5" style="display: none;"></rect><text id="svga-credit-text" font-family="Avenir Next, Roboto, Helvetica, Arial, sans-serif" font-size="10px" text-anchor="start" font-weight="400" size="10px" anchor="start" weight="400" fill="#333333" x="33.402061462402344" y="182.71133995056152" style="display: none;"><tspan id="SvgjsTspan44657" dy="13" x="33.402061462402344">Created on AvatarMaker.com</tspan></text></g><defs id="SvgjsDefs44604"><linearGradient id="SvgjsLinearGradient45774" x1="77.9933" y1="75.4091" x2="77.9933" y2="103.4193" gradientUnits="userSpaceOnUse" class="svga-on-canvas-glasses-gradient-single-0-null"><stop id="SvgjsStop45775" stop-opacity="1" stop-color="#ffffff" offset="0.0708" ></stop><stop id="SvgjsStop45776" stop-opacity="0" stop-color="#ffffff" offset="1" ></stop></linearGradient><linearGradient id="SvgjsLinearGradient45778" x1="32.2756" y1="75.4091" x2="32.2756" y2="103.4193" gradientTransform="matrix(-1 0 0 1 154.0177 0)" gradientUnits="userSpaceOnUse" class="svga-on-canvas-glasses-gradient-single-1-null"><stop id="SvgjsStop45779" stop-opacity="1" stop-color="#ffffff" offset="0.0708" ></stop><stop id="SvgjsStop45780" stop-opacity="0" stop-color="#ffffff" offset="1" ></stop></linearGradient><linearGradient id="SvgjsLinearGradient45881" x1="79.5238" y1="76.8526" x2="79.5238" y2="101.9256" gradientUnits="userSpaceOnUse" class="svga-on-canvas-glasses-gradient-single-0-null"><stop id="SvgjsStop45882" stop-opacity="1" stop-color="#ffffff" offset="0.0708" ></stop><stop id="SvgjsStop45883" stop-opacity="0" stop-color="#ffffff" offset="1" ></stop></linearGradient><linearGradient id="SvgjsLinearGradient45885" x1="38.5238" y1="76.8526" x2="38.5238" y2="101.9256" gradientTransform="matrix(-1 0 0 1 158.5026 0)" gradientUnits="userSpaceOnUse" class="svga-on-canvas-glasses-gradient-single-1-null"><stop id="SvgjsStop45886" stop-opacity="1" stop-color="#ffffff" offset="0.0708" ></stop><stop id="SvgjsStop45887" stop-opacity="0" stop-color="#ffffff" offset="1" ></stop></linearGradient></defs></svg>